<svg viewbox="0 0 16 16" width="16" height="16" version="1.1" xmlns="http://www.w3.org/2000/svg" xmlns:xlink="http://www.w3.org/1999/xlink">
	<g stroke="none" fill="#ff7f00" shape-rendering="geometricPrecision">
		<path d="M 0.75,0.75 h 14.5 v 14.5 h -14.5 z" fill="black"/>
		<path d="M 3.75,8 L 4.5,9.25 6,5.25 8,7.25 10,5.25 11.5,9.25 12.25,8 13,8.5 11.75,10.5 8,7.75 4.25,10.5 3,8.5 z M 6.25,6.5 L 5.5,8.75 7.25,7.5 z M 9.75,6.5 L 8.75,7.5 10.5,8.75 z" opacity="0.75"/>
		<path d="M 6.25,5 L 9.75,5 13.75,8 14.25,11 1.75,11 2.25,8 z M 6.75,6 L 3.25,8.5 3,10 13,10 12.75,8.5 9.25,6 z"/>
		<path d="M 2,0 h 12 a 2,2 0 0 1 2,2 v 12 a 2,2 0 0 1 -2,2 h -12 a 2,2 0 0 1 -2,-2 v -12 a 2,2 0 0 1 2,-2 z M 2,1 a 1,1 0 0 0 -1,1 v 12 a 1,1 0 0 0 1,1 h 12 a 1,1 0 0 0 1,-1 v -12 a 1,1 0 0 0 -1,-1 z"/>
	</g>
</svg>
